<svg xmlns="http://www.w3.org/2000/svg" version="1.1" xmlns:xlink="http://www.w3.org/1999/xlink" width="1000" height="1000"><g clip-path="url(#SvgjsClipPath1066)"><rect width="1000" height="1000" fill="#101014"></rect><g transform="matrix(5,0,0,5,0,0)"><svg xmlns="http://www.w3.org/2000/svg" version="1.1" xmlns:xlink="http://www.w3.org/1999/xlink" width="200" height="200"><svg xmlns="http://www.w3.org/2000/svg" version="1.1" xmlns:xlink="http://www.w3.org/1999/xlink" viewBox="0 0 200 200"><rect width="200" height="200" fill="url('#gradient')"></rect><defs><linearGradient id="gradient" gradientTransform="rotate(45 0.5 0.5)"><stop offset="0%" stop-color="#101014"></stop><stop offset="100%" stop-color="#101014"></stop></linearGradient><clipPath id="SvgjsClipPath1066"><rect width="1000" height="1000" x="0" y="0" rx="0" ry="0"></rect></clipPath></defs><g><g fill="#b2becf" transform="matrix(4.3065420560747665,0,0,4.3065420560747665,7.431736287223956,123.1058083115337)" stroke="#095364" stroke-width="0.5"><path d="M6.04 0.20L6.04 0.20Q3.60 0.20 2.10-1.25Q0.60-2.71 0.60-5.03L0.60-5.03L0.60-5.30Q0.60-6.92 1.20-8.16Q1.80-9.40 2.95-10.08Q4.10-10.76 5.68-10.76L5.68-10.76Q7.91-10.76 9.20-9.38Q10.49-8.00 10.49-5.53L10.49-5.53L10.49-4.25L3.95-4.25Q4.12-3.36 4.72-2.85Q5.31-2.34 6.26-2.34L6.26-2.34Q7.82-2.34 8.70-3.44L8.70-3.44L10.21-1.66Q9.59-0.81 8.46-0.31Q7.33 0.20 6.04 0.20ZM5.66-8.22L5.66-8.22Q4.22-8.22 3.95-6.31L3.95-6.31L7.27-6.31L7.27-6.56Q7.29-7.35 6.87-7.79Q6.45-8.22 5.66-8.22ZM15.28-15L15.28 0L11.98 0L11.98-15L15.28-15ZM16.89-5.36L16.89-5.36Q16.89-7.87 17.98-9.32Q19.06-10.76 21.01-10.76L21.01-10.76Q22.42-10.76 23.39-9.65L23.39-9.65L23.39-15L26.69-15L26.69 0L23.73 0L23.56-1.13Q22.55 0.20 20.99 0.20L20.99 0.20Q19.10 0.20 18.00-1.25Q16.89-2.70 16.89-5.36ZM20.20-5.76L20.19-5.16Q20.19-2.34 21.83-2.34L21.83-2.34Q22.92-2.34 23.39-3.26L23.39-3.26L23.39-7.29Q22.94-8.22 21.85-8.22L21.85-8.22Q20.32-8.22 20.20-5.76L20.20-5.76ZM31.11-10.57L32.78-4.61L34.54-10.57L38.07-10.57L33.76 1.77L33.57 2.22Q32.66 4.27 30.33 4.27L30.33 4.27Q29.69 4.27 28.97 4.07L28.97 4.07L28.97 1.72L29.40 1.72Q30.10 1.72 30.46 1.52Q30.83 1.32 31.01 0.80L31.01 0.80L31.27 0.10L27.60-10.57L31.11-10.57ZM42.39-15L42.39 0L39.09 0L39.09-15L42.39-15Z"></path></g></g></svg></svg></g></g></svg>